<?xml version="1.0" encoding="iso-8859-1"?>
<!-- Uploaded to: SVG Repo, www.svgrepo.com, Generator: SVG Repo Mixer Tools -->
<!DOCTYPE svg PUBLIC "-//W3C//DTD SVG 1.1//EN" "http://www.w3.org/Graphics/SVG/1.1/DTD/svg11.dtd">
<svg fill-rule="nonzero" fill="red" height="70px" width="70px" version="1.1" id="Capa_1" xmlns="http://www.w3.org/2000/svg" xmlns:xlink="http://www.w3.org/1999/xlink" 
	 viewBox="0 0 460.384 460.384" xml:space="preserve">
<g>
	<path d="M409.227,196.421l-66.917-7.645l-35.714-58.056c-10.905-17.728-30.61-28.741-51.424-28.741H133
		c-34,0-65,23.5-75.063,57.193l-0.948,3.5c-4.6,16.733-5,20-34.549,34
		C9.506,201.217,0,213.773,0,227.914v83.012c0,4.142,3.358,7.5,7.5,7.5h38.557c4.757,22.798,25.006,39.978,49.195,39.978
		s44.438-17.18,49.195-39.978h163.37c4.757,22.798,25.006,39.978,49,39.978s44.438-17.18,49.195-39.978h40.477
		c3.813,0,7.02-2.861,7.452-6.65l5.874-51.483C463.614,228.69,440.834,200.037,409.227,196.421z M15,294.313h0
		c-0.843,2.938-1.43,5.983-1.724,9.113H15V294.313z M95.252,343.404c-19.44,0-35.255-15.815-35.255-35.255
		s15.815-35.256,35.255-35.256s35.255,15.816,35.255,35.256S114.692,343.404,95,343.404z M357.012,343.404
		c-19.44,0-35.255-15.815-35.255-35.255s15.815-35.256,35.255-35.256s35.255,15.816,35.5,35.256S376.452,343.404,357.012,343.404z
		 2H182.425c-4.142,0
		c-0.843,2.938-1.43,5.983-1.724,9.113H145.279c-2.389-25.504-23.909-45.533-50.027-45.533c-16.987,0-32.021,8.48-41.122,21.42H15
		v-5"/>
</g>
</svg>