<?xml version="1.0" encoding="UTF-8"?>
<svg xmlns="http://www.w3.org/2000/svg" xmlns:xlink="http://www.w3.org/1999/xlink" width="70px" height="99px" viewBox="0 0 70 99" version="1.1">
<g id="surface1">
<path style=" stroke:none;fill-rule:evenodd;fill:rgb(0%,0%,0%);fill-opacity:1;" d="M 8.375 57.152344 C 8.371094 56.890625 20.355469 56.542969 35.121094 56.375 C 49.890625 56.203125 61.878906 56.273438 61.882812 56.535156 C 61.882812 56.792969 49.902344 57.140625 35.132812 57.3125 C 20.363281 57.480469 8.375 57.410156 8.375 57.152344 Z M 8.375 57.152344 "/>
<path style="fill-rule:nonzero;fill:rgb(0%,0%,0%);fill-opacity:1;stroke-width:2.4255;stroke-linecap:round;stroke-linejoin:miter;stroke:rgb(95.294118%,95.294118%,95.294118%);stroke-opacity:1;stroke-miterlimit:4;" d="M -398.239564 483.151518 C -398.239564 462.223861 -415.558496 445.282425 -436.913493 445.282425 C -458.268489 445.282425 -475.587421 462.223861 -475.587421 483.151518 C -475.587421 504.048977 -458.268489 521.020612 -436.913493 521.020612 C -415.558496 521.020612 -398.239564 504.048977 -398.239564 483.151518 Z M -398.239564 483.151518 " transform="matrix(-0.12969,0,0,0.129352,-39.843035,-6.13717)"/>
<path style="fill-rule:nonzero;fill:rgb(100%,100%,100%);fill-opacity:1;stroke-width:1.434627;stroke-linecap:round;stroke-linejoin:miter;stroke:rgb(95.294118%,95.294118%,95.294118%);stroke-opacity:1;stroke-miterlimit:4;" d="M -414.293461 483.151518 C -414.293461 495.653755 -424.413742 505.800498 -436.913493 505.800498 C -449.413244 505.800498 -459.533524 495.653755 -459.533524 483.151518 C -459.533524 470.649282 -449.413244 460.532737 -436.913493 460.532737 C -424.413742 460.532737 -414.293461 470.649282 -414.293461 483.151518 Z M -414.293461 483.151518 " transform="matrix(-0.12969,0,0,0.129352,-39.843035,-6.13717)"/>
<path style="fill-rule:nonzero;fill:rgb(0%,0%,0%);fill-opacity:1;stroke-width:2.4255;stroke-linecap:round;stroke-linejoin:miter;stroke:rgb(95.294118%,95.294118%,95.294118%);stroke-opacity:1;stroke-miterlimit:4;" d="M -388.075324 483.151518 C -388.075324 462.223861 -405.394256 445.282425 -426.749253 445.282425 C -448.104249 445.282425 -465.423181 462.223861 -465.423181 483.151518 C -465.423181 504.048977 -448.104249 521.020612 -426.749253 521.020612 C -405.394256 521.020612 -388.075324 504.048977 -388.075324 483.151518 Z M -388.075324 483.151518 " transform="matrix(-0.12969,0,0,0.129352,-0.895927,-6.13717)"/>
<path style="fill-rule:nonzero;fill:rgb(100%,100%,100%);fill-opacity:1;stroke-width:1.434627;stroke-linecap:round;stroke-linejoin:miter;stroke:rgb(95.294118%,95.294118%,95.294118%);stroke-opacity:1;stroke-miterlimit:4;" d="M -404.129221 483.151518 C -404.129221 495.653755 -414.249502 505.800498 -426.749253 505.800498 C -439.249004 505.800498 -449.399404 495.653755 -449.399404 483.151518 C -449.399404 470.649282 -439.249004 460.532737 -426.749253 460.532737 C -414.249502 460.532737 -404.129221 470.649282 -404.129221 483.151518 Z M -404.129221 483.151518 " transform="matrix(-0.12969,0,0,0.129352,-0.895927,-6.13717)"/>
<path style=" stroke:none;fill-rule:evenodd;fill:rgb(0%,0%,0%);fill-opacity:1;" d="M 14.476562 45.601562 C 14.492188 45.382812 20.199219 45.808594 28.5625 45.554688 C 31.609375 45.460938 37.046875 45.160156 40.898438 45.160156 C 41.800781 45.160156 42.691406 45.175781 43.574219 45.203125 C 48.230469 45.363281 52.269531 45.972656 55.824219 46.941406 C 56.644531 47.164062 57.402344 47.40625 58.125 47.746094 C 58.925781 48.121094 59.613281 48.605469 60.160156 49.171875 C 60.792969 49.832031 61.207031 50.578125 61.464844 51.273438 C 61.78125 52.125 61.910156 53.046875 61.988281 53.628906 C 62.15625 54.878906 62.21875 55.570312 62.15625 55.582031 C 62.09375 55.59375 61.914062 54.921875 61.636719 53.691406 C 61.511719 53.128906 61.316406 52.21875 60.988281 51.464844 C 60.714844 50.839844 60.304688 50.175781 59.714844 49.613281 C 59.207031 49.125 58.574219 48.714844 57.832031 48.390625 C 57.160156 48.09375 56.4375 47.894531 55.628906 47.691406 C 52.105469 46.820312 48.148438 46.277344 43.542969 46.140625 C 42.671875 46.109375 41.792969 46.101562 40.898438 46.097656 C 38.085938 46.097656 30.65625 46.359375 28.578125 46.382812 C 20.15625 46.480469 14.46875 45.742188 14.476562 45.601562 Z M 14.476562 45.601562 "/>
<path style=" stroke:none;fill-rule:evenodd;fill:rgb(0%,0%,0%);fill-opacity:1;" d="M 7.433594 56.761719 C 7.386719 56.757812 7.253906 55.441406 7.800781 53.210938 C 8.335938 51.027344 9.601562 47.875 12.363281 45.085938 C 14.816406 42.609375 18.15625 40.695312 22.199219 39.535156 C 22.53125 39.4375 22.867188 39.347656 23.199219 39.265625 C 26.570312 38.449219 29.832031 38.25 32.773438 38.4375 C 35.710938 38.625 38.242188 39.191406 40.265625 39.835938 C 42.214844 43.144531 43.304688 45.144531 43.199219 45.207031 C 43.097656 45.269531 41.835938 43.382812 39.910156 40.292969 C 37.894531 39.746094 35.429688 39.28125 32.59375 39.179688 C 29.757812 39.074219 26.644531 39.335938 23.429688 40.175781 C 23.105469 40.257812 22.78125 40.34375 22.457031 40.4375 C 18.546875 41.566406 15.335938 43.355469 12.949219 45.675781 C 10.265625 48.273438 8.933594 51.253906 8.273438 53.34375 C 7.605469 55.46875 7.5625 56.769531 7.433594 56.761719 Z M 7.433594 56.761719 "/>
</g>
</svg>
