<?xml version="1.0" standalone="no"?>
<!DOCTYPE svg PUBLIC "-//W3C//DTD SVG 20010904//EN"
 "http://www.w3.org/TR/2001/REC-SVG-20010904/DTD/svg10.dtd">
<svg version="1.0" xmlns="http://www.w3.org/2000/svg"
 width="512.000000pt" height="512.000000pt" viewBox="0 0 512.000000 512.000000"
 preserveAspectRatio="xMidYMid meet">

<g transform="translate(0.000000,512.000000) scale(0.100000,-0.100000)"
fill="#000000" stroke="none">
<path d="M1840 4323 c-335 -33 -556 -83 -782 -178 -45 -19 -94 -35 -109 -35
-39 0 -114 -25 -149 -50 -41 -29 -72 -93 -73 -149 0 -38 109 -314 642 -1616
691 -1690 657 -1615 750 -1658 51 -22 148 -26 196 -7 80 31 134 105 135 183 0
28 -75 223 -266 690 -147 359 -269 659 -271 667 -3 12 22 24 110 53 201 64
375 92 633 103 l153 7 34 -74 c54 -118 112 -163 255 -200 305 -78 814 13 1220
219 95 48 113 60 109 77 -3 15 -443 1087 -792 1932 l-14 32 -89 -49 c-252
-139 -685 -255 -872 -234 l-57 6 -34 77 c-41 93 -97 152 -165 174 -88 29 -405
46 -564 30z m226 -280 c31 -76 70 -167 85 -203 l27 -65 64 -2 c110 -4 248 -23
285 -38 20 -9 37 -14 39 -13 1 2 -13 41 -32 87 -19 47 -34 85 -34 86 0 3 120
-12 123 -15 2 -3 37 -90 77 -195 40 -104 75 -196 78 -204 4 -10 -7 -12 -52
-10 -31 2 -56 1 -56 -3 0 -3 16 -44 35 -89 39 -94 40 -95 23 -82 -29 23 -99
36 -231 42 l-140 6 -88 208 c-48 115 -89 210 -91 213 -16 15 -531 -45 -549
-64 -4 -4 33 -99 81 -212 81 -190 89 -205 111 -202 13 1 62 9 108 17 115 21
303 37 376 33 l59 -3 86 -205 87 -205 109 -7 c132 -9 221 -25 252 -44 12 -8
22 -12 22 -9 0 3 -15 43 -34 90 l-34 85 48 0 c36 0 50 -4 55 -17 3 -10 36 -94
72 -188 36 -93 69 -179 73 -190 7 -18 4 -20 -36 -16 -24 1 -44 -1 -44 -7 0 -5
20 -57 45 -116 25 -60 45 -114 45 -122 0 -12 -108 -69 -116 -61 -2 2 -19 38
-38 80 l-35 77 -100 0 -99 0 -60 143 c-33 78 -74 177 -92 219 -30 71 -34 77
-59 73 -14 -2 -80 -6 -146 -9 -120 -6 -364 -40 -377 -54 -4 -4 33 -101 82
-217 90 -212 92 -224 48 -225 -31 0 -281 -86 -344 -118 -33 -16 -68 -32 -77
-34 -15 -2 -34 35 -102 202 -47 112 -85 209 -85 216 0 23 312 149 423 169 20
4 37 10 37 14 0 3 -38 96 -84 206 l-85 200 -33 -1 c-49 -1 -258 -69 -357 -115
-46 -22 -85 -38 -86 -37 -9 16 -165 406 -165 414 0 23 269 133 398 164 28 6
52 16 52 20 0 5 -36 94 -80 199 -44 105 -80 192 -80 195 0 15 250 56 404 65
67 5 128 9 137 10 12 1 32 -36 75 -136z m1566 -150 l85 -208 -66 -32 c-36 -17
-137 -55 -223 -84 l-157 -52 19 -46 c98 -249 143 -357 148 -363 10 -10 221 54
340 103 53 22 101 40 106 42 7 2 150 -328 171 -393 4 -13 -11 -25 -72 -52 -78
-36 -249 -96 -331 -118 -27 -7 -42 -16 -39 -23 3 -7 42 -103 87 -215 46 -111
81 -205 78 -207 -13 -13 -196 -45 -308 -54 -199 -16 -178 -32 -271 208 -43
112 -79 208 -79 212 0 5 30 9 68 9 89 0 217 16 325 41 48 11 87 22 87 24 0 6
-160 398 -164 402 -2 2 -53 -5 -112 -17 -60 -12 -168 -24 -240 -27 l-131 -6
-46 119 c-25 65 -62 160 -81 209 l-35 90 42 2 c139 9 408 51 424 67 2 2 -32
94 -77 205 -44 111 -78 206 -75 211 3 6 13 10 21 10 26 0 285 89 349 120 33
15 62 29 65 29 3 1 44 -92 92 -206z"/>
</g>
</svg>
